<?xml version="1.0" encoding="UTF-8"?>
<svg xmlns="http://www.w3.org/2000/svg" xmlns:xlink="http://www.w3.org/1999/xlink" viewBox="303 71 732 614">
  <defs>
    <linearGradient id="linear-gradient" x1="322.95" y1="377.69" x2="1015.28" y2="377.69" gradientUnits="userSpaceOnUse">
      <stop offset="0" stop-color="#bddeeb"/>
      <stop offset=".2" stop-color="#bcb7d5"/>
      <stop offset=".4" stop-color="#f0c9d7"/>
      <stop offset=".6" stop-color="#f3c6b3"/>
      <stop offset=".8" stop-color="#f5f2ca"/>
      <stop offset="1" stop-color="#c1dec7"/>
    </linearGradient>
  </defs>
  <path fill="url(#linear-gradient)" d="M981.89,91.13h-429.66c-18.44,0-33.4,14.95-33.4,33.4v23.35c0,18.44,14.95,33.4,33.4,33.4h72.67v297.86h-.08c-2.06,54.74-48.72,98.51-105.98,98.51s-106.06-45.79-106.06-102.29c0-29.6,13.04-56.25,33.88-74.93l-62.35-62.35c-37.77,34.44-61.34,83.2-61.34,137.29,0,104.33,87.7,188.9,195.88,188.9s195.88-84.57,195.88-188.9V181.27h69.1v455.83c0,9.89,8.02,17.91,17.91,17.91h133.4c9.89,0,17.91-8.02,17.91-17.91v-53.99c0-9.89-8.02-17.91-17.91-17.91h-61.49V181.27h108.26c18.44,0,33.4-14.95,33.4-33.4v-23.35c0-18.44-14.95-33.4-33.4-33.4Z"/>
</svg>
